<svg width="90" height="90" viewBox="0 0 90 90" fill="none" xmlns="http://www.w3.org/2000/svg">
<path d="M9.64244 12.8572C7.93748 12.8572 6.30234 13.5345 5.09675 14.7401C3.89116 15.9457 3.21387 17.5808 3.21387 19.2858V80.3572C3.21387 82.0622 3.89116 83.6973 5.09675 84.9029C6.30234 86.1085 7.93748 86.7858 9.64244 86.7858H80.3567C82.0617 86.7858 83.6968 86.1085 84.9024 84.9029C86.108 83.6973 86.7853 82.0622 86.7853 80.3572V19.2858C86.7853 17.5808 86.108 15.9457 84.9024 14.7401C83.6968 13.5345 82.0617 12.8572 80.3567 12.8572H67.4996M22.4996 3.21436V22.5001M67.4996 3.21436V22.5001M22.4996 12.8572H54.6424" stroke="#206E30" stroke-width="4" stroke-linecap="round" stroke-linejoin="round"/>
<path d="M39.7798 29.3271C38.9273 29.3271 38.1098 29.6658 37.507 30.2686C36.9042 30.8714 36.5655 31.689 36.5655 32.5414V41.58H27.5141C26.6616 41.58 25.844 41.9187 25.2412 42.5214C24.6385 43.1242 24.2998 43.9418 24.2998 44.7943V55.2407C24.2998 56.0932 24.6385 56.9108 25.2412 57.5136C25.844 58.1164 26.6616 58.455 27.5141 58.455H36.5591V67.4936C36.5591 68.3461 36.8977 69.1636 37.5005 69.7664C38.1033 70.3692 38.9209 70.7079 39.7734 70.7079H50.2198C50.6419 70.7079 51.0599 70.6247 51.4499 70.4632C51.8398 70.3017 52.1942 70.0649 52.4927 69.7664C52.7911 69.4679 53.0279 69.1136 53.1894 68.7236C53.351 68.3337 53.4341 67.9157 53.4341 67.4936V58.455H62.4727C63.3252 58.455 64.1427 58.1164 64.7455 57.5136C65.3483 56.9108 65.687 56.0932 65.687 55.2407V44.7943C65.687 43.9418 65.3483 43.1242 64.7455 42.5214C64.1427 41.9187 63.3252 41.58 62.4727 41.58H53.4405V32.5414C53.4405 31.689 53.1019 30.8714 52.4991 30.2686C51.8963 29.6658 51.0787 29.3271 50.2262 29.3271H39.7798Z" stroke="#206E30" stroke-width="4" stroke-linecap="round" stroke-linejoin="round"/>
</svg>
