<svg width="45" height="46" viewBox="0 0 45 46" fill="none" xmlns="http://www.w3.org/2000/svg">
<path fill-rule="evenodd" clip-rule="evenodd" d="M2.5 0.5C1.83696 0.5 1.20107 0.763392 0.732233 1.23223C0.263392 1.70107 0 2.33696 0 3V35.5C0 36.163 0.263392 36.7989 0.732233 37.2678C1.20107 37.7366 1.83696 38 2.5 38H21.25V43H12.5V45.5H32.5V43H23.75V38H42.5C43.163 38 43.7989 37.7366 44.2678 37.2678C44.7366 36.7989 45 36.163 45 35.5V3C45 2.33696 44.7366 1.70107 44.2678 1.23223C43.7989 0.763392 43.163 0.5 42.5 0.5H2.5ZM7.5 32.225V31.3925C7.5 28.245 12.1625 25.2862 16.6663 24.26C17.3975 24.0938 17.315 25.1475 17.5 25.5H27.2913C27.4813 25.1388 27.915 24.165 28.3337 24.26C29.275 24.475 30.2225 24.7737 31.1337 25.1412L31.1625 25.1275L31.1712 25.145L31.1775 25.1575C34.6063 26.5525 37.5 28.915 37.5 31.3925V35.5H41.25V5.5H3.75V35.5H7.5V32.225ZM11.8687 29.05C12.5912 28.5322 13.3643 28.0891 14.1762 27.7275C14.208 28.3665 14.3128 28.9998 14.4887 29.615L14.4963 29.6375C13.9981 29.9527 13.6273 30.4338 13.4494 30.9958C13.2715 31.5578 13.2979 32.1647 13.524 32.7091C13.7501 33.2535 14.1614 33.7006 14.6851 33.9712C15.2088 34.2418 15.8113 34.3187 16.3862 34.1882C16.9611 34.0577 17.4714 33.7282 17.827 33.258C18.1825 32.7878 18.3604 32.207 18.3293 31.6183C18.2982 31.0296 18.0601 30.4709 17.657 30.0407C17.2539 29.6105 16.7117 29.3367 16.1262 29.2675L16.0888 29.1475C15.9191 28.548 15.8333 27.928 15.8337 27.305L15.9912 27.6038H28.8L29.0875 27.0575C29.3108 27.13 29.5333 27.2067 29.755 27.2875C29.7613 27.5625 29.7388 27.8775 29.695 28.2C29.6472 28.5555 29.5711 28.9066 29.4675 29.25H28.3337C28.1789 29.2504 28.0271 29.2937 27.8954 29.3751C27.7637 29.4565 27.6571 29.5729 27.5875 29.7113L26.755 31.3775C26.6987 31.4937 26.6688 31.6209 26.6675 31.75V33.4163C26.6675 33.8775 27.04 34.25 27.5 34.25H29.1663V32.5837H28.3337V31.9462L28.8488 30.9163H31.1512L31.6663 31.9462V32.5837H30.8337V34.25H32.5C32.6095 34.25 32.7179 34.2284 32.8191 34.1865C32.9202 34.1446 33.0121 34.0832 33.0896 34.0058C33.167 33.9284 33.2284 33.8365 33.2703 33.7353C33.3122 33.6342 33.3337 33.5257 33.3337 33.4163V31.75C33.3324 31.6209 33.3025 31.4937 33.2463 31.3775L32.4125 29.71C32.3428 29.5719 32.2361 29.4558 32.1044 29.3746C31.9726 29.2934 31.821 29.2502 31.6663 29.25H31.195C31.2918 28.8387 31.3586 28.4209 31.395 28C32.4087 28.5125 33.2788 29.0988 33.92 29.6963C34.835 30.55 35 31.1437 35 31.3912V35.5H10V31.3912C10 31.0487 10.33 30.1725 11.8687 29.05ZM16.6663 31.75C16.6674 31.8603 16.6468 31.9697 16.6055 32.072C16.5642 32.1743 16.5032 32.2675 16.4258 32.3461C16.3485 32.4247 16.2563 32.4873 16.1547 32.5302C16.0531 32.5732 15.9441 32.5956 15.8337 32.5962C15.7233 32.5958 15.6141 32.5734 15.5124 32.5306C15.4106 32.4877 15.3183 32.4252 15.2409 32.3465C15.1634 32.2679 15.1022 32.1747 15.0609 32.0723C15.0195 31.9699 14.9988 31.8604 15 31.75C15 31.2712 15.385 30.9037 15.8337 30.9037C16.2825 30.9037 16.6663 31.2712 16.6663 31.75ZM22.5 4.25C22.8315 4.25 23.1495 4.1183 23.3839 3.88388C23.6183 3.64946 23.75 3.33152 23.75 3C23.75 2.66848 23.6183 2.35054 23.3839 2.11612C23.1495 1.8817 22.8315 1.75 22.5 1.75C22.1685 1.75 21.8505 1.8817 21.6161 2.11612C21.3817 2.35054 21.25 2.66848 21.25 3C21.25 3.33152 21.3817 3.64946 21.6161 3.88388C21.8505 4.1183 22.1685 4.25 22.5 4.25Z" fill="#206E30"/>
<path fill-rule="evenodd" clip-rule="evenodd" d="M22.5 20.5C23.8261 20.5 25.0979 19.9732 26.0355 19.0355C26.9732 18.0979 27.5 16.8261 27.5 15.5C27.5 14.1739 26.9732 12.9021 26.0355 11.9645C25.0979 11.0268 23.8261 10.5 22.5 10.5C21.1739 10.5 19.9021 11.0268 18.9645 11.9645C18.0268 12.9021 17.5 14.1739 17.5 15.5C17.5 16.8261 18.0268 18.0979 18.9645 19.0355C19.9021 19.9732 21.1739 20.5 22.5 20.5ZM22.5 23C24.4891 23 26.3968 22.2098 27.8033 20.8033C29.2098 19.3968 30 17.4891 30 15.5C30 13.5109 29.2098 11.6032 27.8033 10.1967C26.3968 8.79018 24.4891 8 22.5 8C20.5109 8 18.6032 8.79018 17.1967 10.1967C15.7902 11.6032 15 13.5109 15 15.5C15 17.4891 15.7902 19.3968 17.1967 20.8033C18.6032 22.2098 20.5109 23 22.5 23Z" fill="#206E30"/>
</svg>
