<svg width="60" height="60" viewBox="0 0 60 60" fill="none" xmlns="http://www.w3.org/2000/svg">
<path d="M10 10C10 9.33696 10.2634 8.70107 10.7322 8.23223C11.2011 7.76339 11.837 7.5 12.5 7.5H33.75V22.5H50V50C50 50.663 49.7366 51.2989 49.2678 51.7678C48.7989 52.2366 48.1631 52.5 47.5 52.5H12.5C11.837 52.5 11.2011 52.2366 10.7322 51.7678C10.2634 51.2989 10 50.663 10 50V10Z" stroke="#206E30" stroke-width="4" stroke-linejoin="round"/>
<path d="M33.75 7.5L50 22.5M33.78 7.5V22.6025H50" stroke="#206E30" stroke-width="4" stroke-linecap="round" stroke-linejoin="round"/>
<path d="M17.5 37.5H32.5M25 30V45" stroke="#206E30" stroke-width="4" stroke-linecap="round"/>
</svg>
